<svg width="29" height="17" viewBox="0 0 29 17" fill="none" xmlns="http://www.w3.org/2000/svg">
<path d="M0.68 16.48H2.38L9.4 0.139999H7.7L0.68 16.48ZM12.9008 15H14.4608V1.26H13.2008L9.82078 3.56L10.5008 4.72L12.9008 3.16V15ZM23.2516 15.24C26.5916 15.24 28.9516 12.3 28.9516 8.12C28.9516 3.96 26.5916 1.02 23.2516 1.02C19.8916 1.02 17.5316 3.96 17.5316 8.12C17.5316 12.3 19.8916 15.24 23.2516 15.24ZM23.2516 13.8C20.8316 13.8 19.1116 11.44 19.1116 8.12C19.1116 4.8 20.8316 2.46 23.2516 2.46C25.6716 2.46 27.3716 4.8 27.3716 8.12C27.3716 11.44 25.6716 13.8 23.2516 13.8Z" fill="#9B9B9B"/>
</svg>
